<svg  width="8" height="16" viewBox="0 0 8 16" fill="none" xmlns="http://www.w3.org/2000/svg">
<path d="M5 14V6H1V8H3V14H0V16H8V14H5ZM4 0C3.70333 0 3.41332 0.0879731 3.16665 0.252795C2.91997 0.417617 2.72771 0.651886 2.61418 0.925975C2.50065 1.20006 2.47094 1.50166 2.52882 1.79264C2.5867 2.08361 2.72956 2.35088 2.93934 2.56066C3.14912 2.77044 3.41639 2.9133 3.70736 2.97118C3.99834 3.02906 4.29993 2.99935 4.57402 2.88582C4.84811 2.77229 5.08238 2.58003 5.2472 2.33335C5.41203 2.08668 5.5 1.79667 5.5 1.5C5.5 1.10218 5.34196 0.720644 5.06066 0.43934C4.77936 0.158035 4.39782 0 4 0Z" fill="#102C2F"/>
</svg>
