<svg width="40" height="40" viewBox="0 0 40 40" fill="none" xmlns="http://www.w3.org/2000/svg">
<path d="M18.98 7C18.9213 7.0002 18.8628 7.00555 18.805 7.016C15.6216 7.58252 12.7604 9.30669 10.7721 11.8565C8.78385 14.4064 7.80918 17.6016 8.03575 20.8271C8.26232 24.0525 9.67411 27.0801 11.9993 29.327C14.3245 31.5738 17.3987 32.8811 20.63 32.997C20.794 33.003 20.958 32.997 21.12 32.997C23.219 32.9984 25.2874 32.4943 27.1503 31.5274C29.0133 30.5605 30.616 29.1592 31.823 27.442C31.9208 27.294 31.9779 27.1229 31.9885 26.9458C31.9992 26.7687 31.963 26.592 31.8836 26.4333C31.8042 26.2747 31.6845 26.1397 31.5364 26.0421C31.3883 25.9444 31.2171 25.8875 31.04 25.877C29.0423 25.7017 27.1116 25.0693 25.3972 24.0288C23.6828 22.9884 22.2307 21.5676 21.1529 19.8764C20.0752 18.1852 19.4008 16.2688 19.1818 14.2754C18.9628 12.2819 19.2051 10.2648 19.89 8.38C19.9483 8.22913 19.9697 8.06652 19.9523 7.90572C19.935 7.74492 19.8796 7.59059 19.7905 7.45557C19.7015 7.32055 19.5815 7.20877 19.4405 7.12952C19.2995 7.05028 19.1416 7.00587 18.98 7V7Z" fill="#102C2F"/>
</svg>
