<svg width="40" height="40" viewBox="0 0 40 40" fill="none" xmlns="http://www.w3.org/2000/svg">
<path d="M19 6H21V11H19V6ZM25.688 12.9L29.194 9.394L30.608 10.808L27.102 14.314L25.688 12.9ZM29 19H34V21H29V19ZM25.688 27.1L27.102 25.687L30.608 29.193L29.194 30.607L25.688 27.1ZM19 29H21V34H19V29ZM9.394 29.192L12.9 25.686L14.314 27.1L10.809 30.606L9.394 29.192ZM6 19H11V21H6V19ZM9.395 10.808L10.809 9.394L14.315 12.9L12.9 14.314L9.395 10.808ZM20 14C18.8133 14 17.6533 14.3519 16.6666 15.0112C15.6799 15.6705 14.9108 16.6075 14.4567 17.7039C14.0026 18.8003 13.8838 20.0067 14.1153 21.1705C14.3468 22.3344 14.9182 23.4035 15.7574 24.2426C16.5965 25.0818 17.6656 25.6532 18.8295 25.8847C19.9933 26.1162 21.1997 25.9974 22.2961 25.5433C23.3925 25.0892 24.3295 24.3201 24.9888 23.3334C25.6481 22.3467 26 21.1867 26 20C26 18.4087 25.3679 16.8826 24.2426 15.7574C23.1174 14.6321 21.5913 14 20 14Z" fill="#102C2F"/>
</svg>
