<svg width="202" height="45" viewBox="0 0 202 45" fill="none" xmlns="http://www.w3.org/2000/svg">
<path d="M47.25 1.95238H2.71924L25.6577 38.9962L47.25 1.95238Z" stroke="white" stroke-width="2" stroke-miterlimit="10"/>
<path d="M2.71924 1.95238L25.6577 14.299" stroke="white" stroke-width="2" stroke-miterlimit="10"/>
<path d="M25.6577 14.299L47.25 1.95238" stroke="white" stroke-width="2" stroke-miterlimit="10"/>
<path d="M25.6155 13.9524L25.6579 38.6114" stroke="white" stroke-width="2" stroke-miterlimit="10"/>
<path d="M89.4116 18.1805C90.3436 15.611 91.206 13.2137 92.0823 10.8302C93.1395 7.93695 94.2384 5.06435 95.2607 2.15731C95.5042 1.46155 95.7963 1.15845 96.5961 1.16534C100.067 1.21356 103.544 1.17911 107.015 1.19289C109.282 1.19978 109.852 2.03332 109.073 4.16882C108.663 5.28479 108.315 6.43521 107.787 7.49607C107.495 8.08161 106.931 8.55005 106.437 9.02537C106.18 9.27336 105.818 9.4318 105.248 9.78313C106.869 10.3411 106.472 11.2573 106.076 12.2217C105.596 13.3859 105.151 14.5708 104.768 15.7694C104.295 17.2781 103.175 18.1047 101.722 18.1391C97.7019 18.2494 93.6681 18.1805 89.4116 18.1805ZM101.332 10.8647C99.9901 10.8647 98.7869 10.8371 97.5907 10.8853C97.3403 10.8922 96.9717 11.1058 96.8882 11.3193C96.457 12.3802 96.1023 13.4686 95.6989 14.6259H99.9275C100.38 13.4066 100.832 12.2148 101.332 10.8647ZM103.454 4.95413C102.139 4.95413 100.943 4.94036 99.7467 4.96791C99.545 4.9748 99.239 5.11257 99.1694 5.27101C98.8008 6.11144 98.4948 6.97942 98.1331 7.91628C99.4824 7.91628 100.686 7.93006 101.882 7.90251C102.111 7.89562 102.473 7.75784 102.543 7.58562C102.876 6.75898 103.134 5.90478 103.454 4.95413Z" fill="white"/>
<path d="M112.3 18.2149C110.777 18.2149 109.254 18.2425 107.731 18.208C105.811 18.1667 105.276 17.3814 105.915 15.6041C107.306 11.7877 108.67 7.96451 110.088 4.16193C110.937 1.88866 112.043 1.18601 114.498 1.18601C117.085 1.18601 119.672 1.18601 122.26 1.18601C122.614 1.18601 122.969 1.17912 123.317 1.23423C124.84 1.47533 125.32 2.23998 124.798 3.67972C123.296 7.81984 121.787 11.96 120.236 16.0794C119.672 17.5743 118.379 18.1391 116.869 18.1943C115.346 18.2563 113.823 18.2149 112.3 18.2149ZM111.584 14.4399C112.773 14.4399 113.761 14.3986 114.741 14.4537C115.437 14.495 115.715 14.2126 115.931 13.5857C116.744 11.2504 117.634 8.94271 118.483 6.62121C118.671 6.11144 118.824 5.59479 119.032 4.96791C117.788 4.96791 116.696 4.94036 115.611 4.98858C115.367 5.00236 114.999 5.21591 114.922 5.42257C113.809 8.35716 112.738 11.2918 111.584 14.4399Z" fill="white"/>
<path d="M81.1348 18.2149C79.6117 18.2149 78.0886 18.2356 76.5654 18.208C74.6806 18.1736 74.1381 17.2849 74.7919 15.549C76.2038 11.7877 77.5809 8.01273 78.9371 4.23771C79.7091 2.10221 80.8427 1.22045 83.0961 1.20667C85.892 1.18601 88.6949 1.19289 91.4908 1.19978C91.8037 1.19978 92.1237 1.24112 92.4297 1.31C93.7024 1.59933 94.1406 2.32264 93.7094 3.52128C92.2002 7.69585 90.684 11.8704 89.133 16.0243C88.5558 17.5674 87.2482 18.1529 85.6973 18.208C84.1811 18.2631 82.658 18.2149 81.1348 18.2149ZM87.9298 4.9748C86.8379 4.9748 85.8851 5.02302 84.9392 4.96102C84.1811 4.90591 83.8055 5.15391 83.5691 5.891C83.117 7.32386 82.5328 8.71538 82.0251 10.1207C81.5174 11.5191 81.0236 12.9244 80.488 14.433C81.7469 14.433 82.8736 14.4606 84.0003 14.4123C84.2367 14.3986 84.5845 14.1368 84.668 13.9164C85.7529 11.0093 86.8031 8.0885 87.9298 4.9748Z" fill="white"/>
<path d="M58.3994 18.2218C59.5957 15.0048 60.6946 12.0633 61.7795 9.12179C62.6419 6.7934 63.5044 4.46501 64.325 2.12285C64.5476 1.48909 64.9023 1.24109 65.5561 1.24109C69.0961 1.24109 72.6432 1.18598 76.1833 1.20665C78.2697 1.22043 78.8261 2.07463 78.1167 4.01725C77.616 5.39499 77.1083 6.77962 76.6145 8.15737C75.9676 9.98977 74.7714 10.844 72.7892 10.8646C72.5458 10.8646 72.3024 10.8646 71.8503 10.8646C72.1911 13.3032 72.518 15.6592 72.8657 18.1942C71.1965 18.1942 69.6247 18.208 68.0529 18.1736C67.9208 18.1736 67.7191 17.8429 67.6912 17.65C67.3852 15.5834 66.961 13.5099 66.8775 11.4364C66.8358 10.3066 67.3783 9.15623 67.6634 7.95759H71.4121C71.7669 6.96562 72.1076 6.03564 72.5041 4.93345C71.0366 4.93345 69.743 4.89211 68.4632 4.96789C68.2268 4.98167 67.9277 5.46388 67.8164 5.78076C66.4811 9.50067 65.1388 13.2206 63.873 16.9612C63.56 17.8911 63.1705 18.3527 62.0995 18.2493C60.9658 18.1391 59.7974 18.2218 58.3994 18.2218Z" fill="white"/>
<path d="M140.836 1.35133C140.489 2.38464 140.162 3.44551 139.751 4.47192C139.682 4.65103 139.223 4.75436 138.945 4.76814C137.915 4.80258 136.886 4.84392 135.864 4.77503C135.126 4.72681 134.799 4.99547 134.563 5.66367C133.144 9.54202 131.677 13.3997 130.272 17.2849C130.014 17.9876 129.694 18.2838 128.909 18.2425C127.678 18.1736 126.44 18.2218 124.993 18.2218C126.641 13.7166 128.234 9.34225 129.896 4.80258H125.229C125.64 3.65217 125.946 2.66019 126.356 1.70955C126.46 1.46844 126.878 1.22045 127.149 1.22045C131.614 1.19289 136.079 1.20667 140.544 1.21356C140.614 1.21356 140.676 1.26867 140.836 1.35133Z" fill="white"/>
<path d="M62.8784 28.2793H63.8104H68.4911H69.43H74.1107V23.6432H58.1978V28.2793H62.8784Z" fill="white"/>
<path d="M58.1978 29.7397V39.4115H62.8784V29.726L58.1978 29.7397Z" fill="white"/>
<path d="M69.4299 29.6984V39.4115L74.1106 44.0476V29.6846L69.4299 29.6984Z" fill="white"/>
<path d="M63.8103 29.7191V39.4115H68.4979V29.7053L63.8103 29.7191Z" fill="white"/>
<path d="M80.7664 28.2793H89.1888V23.6432H76.0857V28.2793H80.7664Z" fill="white"/>
<path d="M89.1888 33.8454V29.6915L76.0857 29.7398V39.4115H89.1888V34.7754H80.7664V33.8454H89.1888Z" fill="white"/>
<path d="M103.335 23.6432H91.1641V28.0107H103.335V23.6432Z" fill="white"/>
<path d="M94.9058 29.4642V39.4115L99.5864 44.0476V29.4435L94.9058 29.4642Z" fill="white"/>
<path d="M118.42 23.6432H105.31V28.0107H118.42V23.6432Z" fill="white"/>
<path d="M118.413 29.4229L105.31 29.478V39.4115H109.991V35.7398L118.379 44.0476H118.413V37.5171L114.706 33.8454H118.413V29.4229Z" fill="white"/>
<path d="M133.499 23.6432H120.389V28.0107H133.499V23.6432Z" fill="white"/>
<path d="M128.811 29.4435V34.7754H125.07V29.4573L120.389 29.478V39.4115H133.492V29.4229L128.811 29.4435Z" fill="white"/>
<path d="M148.577 23.6432H135.467V28.0107H148.577V23.6432Z" fill="white"/>
<path d="M135.467 29.4642V39.4115H140.148V33.8454H148.577V29.416L135.467 29.4642Z" fill="white"/>
<path d="M163.655 23.6432H150.545V28.0107H163.655V23.6432Z" fill="white"/>
<path d="M158.975 29.4366V34.7754H155.226V29.4504L150.545 29.4642V39.4115H163.655V29.416L158.975 29.4366Z" fill="white"/>
<path d="M170.305 23.6432H165.624V28.0107H170.305V23.6432Z" fill="white"/>
<path d="M170.305 29.4573L165.624 29.4711V39.4115H177.795V34.7754H170.305V29.4573Z" fill="white"/>
<path d="M184.451 23.6432H179.77V28.0107H184.451V23.6432Z" fill="white"/>
<path d="M179.77 29.478V39.4115H184.451V29.4573L179.77 29.478Z" fill="white"/>
<path d="M201.011 23.6432H187.901V28.0107H201.011V23.6432Z" fill="white"/>
<path d="M187.9 29.4711V33.8454H196.323V34.7754H187.9L183.22 39.4115H201.011V29.4229L187.9 29.4711Z" fill="white"/>
</svg>
